<?xml version="1.0" encoding="UTF-8"?><svg id="_лой_1" xmlns="http://www.w3.org/2000/svg" viewBox="0 0 528.76 89.5"><defs><style>.cls-1{fill:#fff;}</style></defs><path class="cls-1" d="M11.82,66.05c-5.04-2.71-8.52-6.89-10.43-12.52l11.24-3.41c1.08,3.72,3.48,6.49,7.17,8.29,3.69,1.81,8.31,2.71,13.84,2.71s9.86-.8,12.67-2.4c2.82-1.6,4.22-3.9,4.22-6.9,0-2.33-.84-4.04-2.52-5.15-1.68-1.11-3.8-1.82-6.36-2.13s-6.19-.54-10.89-.7c-6-.21-10.8-.62-14.42-1.24-3.62-.62-6.69-2.05-9.22-4.3-2.53-2.25-3.8-5.67-3.8-10.27,0-3.57,1.08-6.72,3.26-9.46,2.17-2.74,5.3-4.87,9.38-6.4,4.08-1.52,8.86-2.29,14.34-2.29,8.01,0,14.43,1.24,19.26,3.72,4.83,2.48,8.2,6.25,10.12,11.32l-10.93,2.79c-1.09-3-3.13-5.22-6.12-6.67-3-1.45-7.05-2.17-12.17-2.17s-9.26,.76-12.13,2.29c-2.87,1.52-4.3,3.53-4.3,6.01,0,1.96,.77,3.42,2.33,4.38,1.55,.96,3.53,1.59,5.93,1.9,2.4,.31,5.8,.54,10.19,.7,6.3,.26,11.37,.71,15.19,1.36,3.82,.65,7.11,2.16,9.85,4.54,2.74,2.38,4.11,5.97,4.11,10.78,0,6.2-2.43,10.97-7.29,14.3-4.86,3.33-11.96,5-21.32,5s-16.16-1.36-21.2-4.07Z"/><path class="cls-1" d="M78.29,67.56c-4.03-1.71-7.17-4.23-9.42-7.56-2.25-3.33-3.37-7.33-3.37-11.98s1.12-8.63,3.37-11.94c2.25-3.31,5.37-5.81,9.38-7.52,4-1.71,8.62-2.56,13.84-2.56s9.83,.85,13.84,2.56c4,1.71,7.13,4.21,9.38,7.52,2.25,3.31,3.37,7.29,3.37,11.94s-1.12,8.64-3.37,11.98c-2.25,3.33-5.38,5.85-9.38,7.56-4.01,1.71-8.62,2.56-13.84,2.56s-9.77-.85-13.8-2.56Zm2.13-9.46c2.92,2.43,6.76,3.64,11.51,3.64s8.84-1.21,11.78-3.64c2.95-2.43,4.42-5.79,4.42-10.08s-1.47-7.66-4.42-10.12c-2.95-2.45-6.87-3.68-11.78-3.68s-8.59,1.23-11.51,3.68c-2.92,2.46-4.38,5.83-4.38,10.12s1.46,7.65,4.38,10.08Z"/><path class="cls-1" d="M129.07,66.2c-3-2.61-4.5-6.37-4.5-11.28V27.33h10.62v25.43c0,3.1,.89,5.36,2.67,6.78,1.78,1.42,4.28,2.13,7.48,2.13,3.57,0,6.46-.94,8.68-2.83,2.22-1.89,3.36-4.82,3.41-8.8V27.33h10.46v41.4h-10.46v-5.43c-1.65,2.12-3.81,3.79-6.47,5-2.66,1.21-5.62,1.82-8.88,1.82-5.69,0-10.03-1.31-13.02-3.92Z"/><path class="cls-1" d="M206.16,36.55c-1.78-1.45-4.25-2.17-7.4-2.17-3.57,0-6.46,.94-8.68,2.83-2.22,1.89-3.36,4.82-3.41,8.8v22.71h-10.54V27.33h10.54v5.5c1.65-2.12,3.8-3.79,6.43-5,2.64-1.21,5.61-1.82,8.91-1.82,5.63,0,9.95,1.31,12.95,3.92,3,2.61,4.5,6.37,4.5,11.28v27.52h-10.62v-25.43c0-3.05-.89-5.3-2.67-6.74Z"/><path class="cls-1" d="M237.05,67.56c-3.62-1.71-6.47-4.21-8.57-7.52-2.09-3.31-3.14-7.26-3.14-11.86s1.05-8.64,3.14-11.98c2.09-3.33,4.96-5.86,8.6-7.6,3.64-1.73,7.71-2.6,12.21-2.6,3.82,0,7.25,.67,10.27,2.02,3.02,1.34,5.28,3.21,6.78,5.58V8.72h10.62v60h-10.08l-.31-6.43c-1.45,2.48-3.71,4.41-6.78,5.78-3.08,1.37-6.58,2.05-10.5,2.05-4.55,0-8.63-.85-12.25-2.56Zm3.22-9.61c2.87,2.27,6.65,3.41,11.36,3.41s8.48-1.14,11.32-3.41c2.84-2.27,4.26-5.53,4.26-9.77s-1.42-7.67-4.26-10c-2.84-2.33-6.62-3.49-11.32-3.49s-8.49,1.16-11.36,3.49c-2.87,2.33-4.3,5.66-4.3,10s1.43,7.49,4.3,9.77Z"/><path class="cls-1" d="M293.21,66.05c-5.04-2.71-8.52-6.89-10.43-12.52l11.24-3.41c1.08,3.72,3.47,6.49,7.17,8.29,3.69,1.81,8.31,2.71,13.84,2.71s9.86-.8,12.67-2.4c2.82-1.6,4.23-3.9,4.23-6.9,0-2.33-.84-4.04-2.52-5.15-1.68-1.11-3.8-1.82-6.36-2.13-2.56-.31-6.19-.54-10.89-.7-6-.21-10.8-.62-14.42-1.24-3.62-.62-6.69-2.05-9.22-4.3-2.53-2.25-3.8-5.67-3.8-10.27,0-3.57,1.09-6.72,3.26-9.46,2.17-2.74,5.3-4.87,9.38-6.4,4.08-1.52,8.86-2.29,14.34-2.29,8.01,0,14.43,1.24,19.26,3.72s8.2,6.25,10.12,11.32l-10.93,2.79c-1.08-3-3.13-5.22-6.12-6.67-3-1.45-7.05-2.17-12.17-2.17s-9.26,.76-12.13,2.29c-2.87,1.52-4.3,3.53-4.3,6.01,0,1.96,.78,3.42,2.33,4.38,1.55,.96,3.53,1.59,5.93,1.9,2.4,.31,5.8,.54,10.19,.7,6.3,.26,11.37,.71,15.19,1.36,3.82,.65,7.1,2.16,9.84,4.54,2.74,2.38,4.11,5.97,4.11,10.78,0,6.2-2.43,10.97-7.29,14.3-4.86,3.33-11.96,5-21.32,5s-16.16-1.36-21.2-4.07Z"/><path class="cls-1" d="M356.32,66.9c-2.04-2.14-3.06-5.26-3.06-9.34v-22.71h-7.67v-7.52h1.86c3,0,5.22-.75,6.67-2.25,1.45-1.5,2.17-3.85,2.17-7.05v-2.09h7.6v11.4h10.85v7.52h-10.85v19.92c0,2.22,.48,3.88,1.43,4.96,.96,1.09,2.26,1.63,3.92,1.63,1.86,0,3.57-.44,5.12-1.32v8.14c-3.46,1.29-6.62,1.94-9.46,1.94-3.67,0-6.52-1.07-8.57-3.22Z"/><path class="cls-1" d="M383.29,66.94c-3.13-2.12-4.69-5.4-4.69-9.85,0-3.36,.92-5.99,2.75-7.91,1.83-1.91,4.25-3.31,7.25-4.19,3-.88,6.87-1.6,11.63-2.17l13.33-1.63c0-3.05-.83-5.14-2.48-6.28-1.65-1.14-4.26-1.71-7.83-1.71-7.44,0-12.07,2.64-13.88,7.91l-9.69-1.55c1.03-4.44,3.63-7.82,7.79-10.12,4.16-2.3,9.31-3.45,15.46-3.45,5.68,0,10.09,.7,13.22,2.09,3.13,1.4,5.27,3.31,6.43,5.74,1.16,2.43,1.74,5.43,1.74,8.99v17.13c0,1.86,.09,3.48,.27,4.85,.18,1.37,.55,2.67,1.12,3.91h-11.01c-.62-1.5-1.01-3.33-1.16-5.5-2.02,2.48-4.72,4.25-8.1,5.31-3.39,1.06-6.83,1.59-10.35,1.59-4.76,0-8.7-1.06-11.82-3.18Zm8.14-6.2c1.58,.88,3.63,1.32,6.16,1.32s5.01-.36,7.44-1.09c2.43-.72,4.46-1.9,6.08-3.53,1.63-1.63,2.44-3.73,2.44-6.32v-2.64l-12.64,1.63c-4.19,.52-7.21,1.2-9.07,2.05-1.86,.85-2.79,2.31-2.79,4.38,0,1.91,.79,3.31,2.36,4.19Z"/><path class="cls-1" d="M437.83,67.02c-4.24-2.07-6.93-5.12-8.06-9.15l9.54-2.48c.98,2.69,2.75,4.6,5.31,5.74,2.56,1.14,5.75,1.71,9.57,1.71,3.46,0,6.21-.53,8.26-1.59,2.04-1.06,3.06-2.7,3.06-4.92,0-2.02-.88-3.42-2.64-4.22-1.76-.8-4.19-1.2-7.29-1.2-.93,0-2.38,.05-4.34,.16-1.96,.1-3.44,.15-4.42,.15-4.55,0-8.29-.89-11.24-2.67-2.95-1.78-4.42-4.69-4.42-8.72,0-4.34,1.87-7.73,5.62-10.16,3.75-2.43,8.88-3.64,15.39-3.64,5.84,0,10.62,.9,14.34,2.71,3.72,1.81,6.49,4.68,8.29,8.6l-9.61,1.78c-2.38-4.13-6.9-6.2-13.57-6.2-3.41,0-6.06,.53-7.95,1.59-1.89,1.06-2.83,2.55-2.83,4.46,0,1.6,.78,2.7,2.33,3.29,1.55,.59,3.77,.89,6.67,.89,1.6,0,2.84-.03,3.72-.08l3.95-.08c5.32,0,9.69,.87,13.1,2.6,3.41,1.73,5.12,4.92,5.12,9.57,0,5.22-2,9.02-6.01,11.4-4.01,2.38-9.37,3.57-16.08,3.57-6.31,0-11.58-1.03-15.81-3.1Z"/><path class="cls-1" d="M504.18,35c-3.41,0-6.25,.89-8.53,2.67-2.27,1.78-3.44,4.56-3.49,8.33v22.71h-10.54V8.72h10.54v24.65c1.71-2.17,3.91-3.85,6.63-5.04,2.71-1.19,5.8-1.78,9.26-1.78,5.43,0,9.6,1.34,12.52,4.03,2.92,2.69,4.38,6.62,4.38,11.78v26.36h-10.62v-24.88c0-5.89-3.38-8.84-10.15-8.84Z"/></svg>