<svg width="19" height="18" viewBox="0 0 19 18" fill="orange" xmlns="http://www.w3.org/2000/svg">
<path d="M16.2723 2.34319C15.8679 1.91736 15.3878 1.57956 14.8594 1.34909C14.331 1.11862 13.7647 1 13.1927 1C12.6207 1 12.0544 1.11862 11.526 1.34909C10.9975 1.57956 10.5175 1.91736 10.1131 2.34319L9.27394 3.22652L8.43477 2.34319C7.61802 1.48344 6.51026 1.00045 5.35519 1.00045C4.20012 1.00045 3.09236 1.48344 2.27561 2.34319C1.45885 3.20293 1 4.36899 1 5.58485C1 6.80072 1.45885 7.96678 2.27561 8.82652L3.11477 9.70985L9.27394 16.1932L15.4331 9.70985L16.2723 8.82652C16.6768 8.40089 16.9977 7.89553 17.2167 7.33932C17.4356 6.7831 17.5483 6.18693 17.5483 5.58485C17.5483 4.98278 17.4356 4.38661 17.2167 3.83039C16.9977 3.27418 16.6768 2.76882 16.2723 2.34319Z" stroke="white" stroke-width="2" stroke-linecap="round" stroke-linejoin="round"/>
</svg>
